PathFileType	4	(X/Y/Z)	..\data\2015002\dynamic\2015002_C4_04.trc
DataRate	CameraRate	NumFrames	NumMarkers	Units	OrigDataRate	OrigDataStartFrame	OrigNumFrames
100.000000	100.000000	4	52	mm	100.000000	0	168
Frame#	Time	L_IAS			L_IPS			R_IPS			R_IAS			L_FTC			L_FLE			L_FME			L_FAX			L_TTC			L_FAL			L_TAM			L_FCC			L_FM1			L_FM2			L_FM5			R_FTC			R_FLE			R_FME			R_FAX			R_TTC			R_FAL			R_TAM			R_FCC			R_FM1			R_FM2			R_FM5			CV7			TV10			SXS			SJN			L_SIA			L_SRS			L_SAA			L_SAE			L_HLE			L_HME			L_UOA			L_RSP			L_UHE			L_HM2			L_HM5			R_SIA			R_SRS			R_SAA			R_SAE			R_HLE			R_HME			R_UOA			R_RSP			R_UHE			R_HM2			R_HM5			
		X1	Y1	Z1	X2	Y2	Z2	X3	Y3	Z3	X4	Y4	Z4	X5	Y5	Z5	X6	Y6	Z6	X7	Y7	Z7	X8	Y8	Z8	X9	Y9	Z9	X10	Y10	Z10	X11	Y11	Z11	X12	Y12	Z12	X13	Y13	Z13	X14	Y14	Z14	X15	Y15	Z15	X16	Y16	Z16	X17	Y17	Z17	X18	Y18	Z18	X19	Y19	Z19	X20	Y20	Z20	X21	Y21	Z21	X22	Y22	Z22	X23	Y23	Z23	X24	Y24	Z24	X25	Y25	Z25	X26	Y26	Z26	X27	Y27	Z27	X28	Y28	Z28	X29	Y29	Z29	X30	Y30	Z30	X31	Y31	Z31	X32	Y32	Z32	X33	Y33	Z33	X34	Y34	Z34	X35	Y35	Z35	X36	Y36	Z36	X37	Y37	Z37	X38	Y38	Z38	X39	Y39	Z39	X40	Y40	Z40	X41	Y41	Z41	X42	Y42	Z42	X43	Y43	Z43	X44	Y44	Z44	X45	Y45	Z45	X46	Y46	Z46	X47	Y47	Z47	X48	Y48	Z48	X49	Y49	Z49	X50	Y50	Z50	X51	Y51	Z51	X52	Y52	Z52	

1	0	-291.7501525878907	951.4653320312502	-389.1155700683595	-483.6760253906251	959.5806274414065	-313.0740661621094	-483.7747802734376	961.9523925781252	-211.3397979736329	-291.5735168457032	945.8562011718752	-137.7378540039063	-351.0181579589844	871.2574462890627	-460.6472778320314	-193.2973785400391	478.346649169922	-442.0369567871095	-175.2032012939453	475.8174438476564	-305.7227172851563	-190.4516754150391	415.3238525390626	-438.0850219726564	-118.618034362793	426.6826782226564	-390.338592529297	-65.79135894775392	77.98052215576173	-405.7266540527345	-35.88921356201173	107.9042358398438	-320.8997192382813	-86.03699493408205	8.951560974121096	-330.3070068359376	104.7148056030274	92.16133880615236	-338.7118530273438	91.25649261474611	104.5001678466797	-395.3787536621095	57.8851890563965	65.52742767333986	-440.8444213867189	-377.2801208496094	852.6185302734377	-78.1797561645508	-477.8434143066407	451.789520263672	-154.2858428955078	-456.9642333984376	448.8267211914064	-287.9035339355469	-511.6345214843751	402.1196289062501	-162.6800689697266	-446.7915649414064	370.7867431640626	-209.230697631836	-648.1801757812501	77.34606170654298	-233.7804870605469	-597.7967529296876	88.29766845703126	-316.4130859375001	-690.7701416015626	34.52623748779298	-304.0315551757813	-484.064666748047	9.014044761657717	-287.3541564941407	-480.6758728027345	31.26949882507325	-227.335678100586	-550.4898681640626	16.78064918518067	-174.0650329589844	-410.0795898437501	1449.454833984375	-274.0719299316407	-500.6119079589845	1200.51025390625	-255.5616607666016	-251.430404663086	1140.59375	-266.4405517578126	-293.3910827636719	1347.5302734375	-273.8191223144532	-516.3538818359376	1223.2294921875	-362.6105651855469	-476.9846801757814	1377.392578125	-350.1813659667969	-431.4050903320314	1376.4775390625	-442.7051391601564	-387.5559387207032	1362.165283203125	-478.6132202148439	-491.867401123047	1069.119995117188	-512.1103515625001	-509.5139770507814	1060.691284179688	-428.9939880371095	-529.2612304687501	1042.036376953125	-494.8587341308595	-427.8071594238282	811.3975219726565	-514.9270019531251	-491.2969970703126	823.708923339844	-559.1490478515626	-423.0552062988282	707.1500854492189	-523.5449218750001	-515.5870971679689	742.5604248046876	-562.9500732421876	-488.1396789550782	1228.749755859375	-131.5742492675782	-460.2841796875001	1378.072021484375	-157.0927276611328	-393.6623535156251	1385.135864257813	-80.11011505126955	-345.0664062500001	1387.005004882813	-66.80587005615236	-241.3668670654297	1091.453247070313	-3.078913211822511	-278.3552246093751	1058.181274414063	-84.11794281005861	-251.2352294921876	1022.385498046875	-28.56652450561524	-19.0464153289795	1002.613891601563	-127.4506301879883	-29.21049308776856	959.6407470703127	-63.63451766967775	79.87774658203126	974.3264770507815	-137.3777313232422	29.46635246276856	905.8333129882815	-76.85488891601564	
2	0.01	-277.4390869140626	949.1354980468752	-389.2678527832032	-469.4308166503907	957.3476562500002	-313.9086608886719	-469.759002685547	959.8223876953127	-212.230453491211	-277.7559204101563	943.9030761718752	-137.6910247802735	-337.0872802734376	868.6231689453127	-460.9672241210939	-181.5022430419922	475.374481201172	-440.1166381835939	-163.26806640625	473.7701721191407	-303.4675292968751	-177.1541137695313	412.6809997558595	-435.9103088378907	-105.1232833862305	425.838592529297	-388.0859680175782	-42.88802719116212	78.12047576904298	-402.8779602050782	-13.93377876281739	108.9682312011719	-318.0718383789063	-61.6725425720215	8.550619125366213	-327.5141906738282	127.1588439941407	97.25274658203128	-334.5462646484376	114.1194076538086	108.5994262695313	-391.5159301757814	82.14768218994142	68.21250152587892	-436.8873291015626	-364.5522766113282	851.2172851562502	-78.20764923095705	-470.1755371093751	451.9634704589845	-154.1573944091797	-447.4930114746095	448.1481018066407	-287.4130859375001	-504.7764587402345	402.922332763672	-162.6618041992188	-440.0333557128907	370.1006164550782	-208.3987884521485	-647.1611938476564	80.40599822998048	-233.9603271484376	-596.0396118164064	90.53768920898439	-316.2584838867188	-690.1283569335939	38.44559860229493	-304.4795227050782	-483.7079467773439	9.079308509826662	-287.1373596191407	-480.5039367675782	31.38138389587403	-227.0923614501954	-550.5880737304689	17.02201080322266	-174.4172058105469	-396.5188598632814	1447.285766601563	-275.1727294921876	-486.7295532226564	1198.345458984375	-256.2406616210938	-237.4410095214844	1138.603759765625	-267.1657714843751	-279.4854736328126	1345.575927734375	-275.1207275390626	-502.6335449218751	1220.729125976563	-363.1228942871094	-463.374481201172	1375.051025390625	-351.0107116699219	-417.9728393554689	1374.101440429688	-443.4788818359376	-374.4264221191407	1359.768676757813	-479.5510864257814	-481.5804748535157	1067.639282226563	-511.577362060547	-498.4009704589845	1059.461669921875	-428.313201904297	-519.1042480468751	1041.052612304688	-493.9110412597657	-420.4743652343751	809.2977294921877	-515.2107543945314	-484.4968872070314	822.2759399414065	-558.4353027343751	-417.4790649414064	704.7959594726564	-523.3941650390626	-509.9844360351564	741.4827270507814	-561.6575317382814	-474.3826293945314	1226.485595703125	-132.5129089355469	-446.651824951172	1376.008056640625	-158.0754089355469	-379.9907836914063	1383.171020507813	-81.09637451171876	-331.4091186523438	1385.134643554688	-67.75343322753908	-227.1742706298829	1089.8408203125	-2.811178922653199	-264.6897583007813	1056.169677734375	-83.73134613037111	-236.9096069335938	1020.493713378906	-28.15004348754884	-5.110910415649415	1004.79150390625	-128.726303100586	-14.15128517150879	961.4797973632815	-64.96896362304689	94.29930114746095	978.8845214843752	-139.0321350097657	45.65581130981446	909.0565185546877	-78.72277069091798	
3	0.02	-263.0751647949219	947.0388183593752	-389.5019531250001	-455.1179199218751	955.3286132812502	-314.7246398925782	-455.5111694335939	957.8302001953127	-213.1043243408204	-263.6777954101563	942.0809326171877	-137.6693420410157	-322.9291381835938	866.4969482421877	-461.3513183593751	-168.7069244384766	473.0720214843751	-438.4723510742189	-150.532943725586	472.3515930175782	-301.5603942871094	-163.3453521728516	410.5451660156251	-434.0086364746095	-91.2549285888672	425.0841369628907	-385.9555664062501	-23.23917198181153	78.06735992431642	-399.983612060547	4.922742366790772	109.4619903564453	-315.1421813964844	-41.55654525756837	8.451593399047853	-324.7270507812501	146.1654052734375	100.2720794677735	-330.2415161132813	133.6779022216797	110.8136444091797	-387.4639892578126	102.7440338134766	69.4959182739258	-432.737518310547	-351.4309692382813	849.8533325195315	-78.3540725708008	-461.8315429687501	452.2555541992189	-153.9049072265625	-437.3161010742189	447.4298706054689	-286.7404479980469	-497.2774047851564	403.850555419922	-162.4903717041016	-432.7213134765626	369.4318542480469	-207.4412689208985	-645.9071044921876	83.86375427246095	-233.8311157226563	-594.1166992187501	93.08605194091798	-315.8346252441407	-689.4288330078126	42.92130279541016	-304.5852050781251	-483.375457763672	9.041372299194338	-286.9361877441407	-480.3066406250001	31.46239471435548	-226.8493652343751	-550.5911254882814	17.19060134887696	-174.70458984375	-382.8636474609376	1445.244506835938	-276.3539733886719	-472.7214355468751	1196.315673828125	-256.8701782226563	-223.3395385742188	1136.731079101563	-267.9503784179688	-265.5099792480469	1343.759399414063	-276.4966735839844	-488.8319702148439	1218.332641601563	-363.6690368652344	-449.7036437988282	1372.816284179688	-351.8900146484376	-404.5184936523439	1371.797973632813	-444.3243408203126	-361.2597656250001	1357.449829101563	-480.5705871582032	-470.9182739257814	1066.138061523438	-511.078582763672	-486.9210815429689	1058.192993164063	-427.6809387207032	-508.5398559570314	1040.026245117188	-493.0067749023439	-412.5938720703126	807.2615356445315	-515.4891357421876	-477.1407165527345	820.858581542969	-557.7109985351564	-411.3045043945314	702.5106201171876	-523.1967773437501	-503.7658691406251	740.4361572265626	-560.3364257812501	-460.4758911132814	1224.362548828125	-133.4658660888672	-432.8995361328126	1374.086547851563	-159.1227111816407	-366.1864013671876	1381.350341796875	-82.16379547119142	-317.6254272460938	1383.399169921875	-68.76148223876955	-213.3271942138672	1088.192626953125	-2.569146394729615	-251.3807983398438	1054.184692382813	-83.35717010498048	-223.0385131835938	1018.654541015625	-27.73806762695313	8.306295394897463	1006.307312011719	-129.8719329833985	0.3005892336368561	962.7715454101565	-66.12930297851564	108.0829315185547	982.5732421875002	-140.5383453369141	61.15354537963869	911.5325317382815	-80.38815307617189	
4	0.03	-248.6775360107422	945.255065917969	-389.8395080566407	-440.7426757812501	953.5672607421877	-315.4813537597657	-441.026092529297	956.014343261719	-213.9151458740235	-249.3133544921876	940.4031372070315	-137.7083282470703	-308.5446166992188	864.9651489257815	-461.8133850097657	-154.8503723144532	471.5139465332032	-437.1709289550782	-136.9687042236328	471.5661621093751	-300.0946350097657	-148.9812316894532	408.9695434570314	-432.4795837402345	-76.96956634521486	424.4303588867189	-384.0528869628907	-6.739698410034181	77.71245574951173	-397.1851806640626	20.80978965759278	109.2939453125	-312.2544555664063	-25.60623931884766	8.564130783081056	-322.0686035156251	161.9156799316407	101.0509567260742	-325.9622497558594	150.0781707763672	110.9826736450196	-383.3842163085938	119.7706146240235	69.21556854248048	-428.565399169922	-337.9035034179688	848.529235839844	-78.61499786376955	-452.7361450195314	452.6263427734376	-153.4902496337891	-426.4222412109376	446.6436767578126	-285.8501586914063	-489.0732421875001	404.8737182617189	-162.1268768310547	-424.8022460937501	368.7606201171876	-206.3269958496094	-644.3432617187501	87.72599029541017	-233.3553314208985	-591.9667968750001	95.94937896728517	-315.1058349609376	-688.5932006835939	48.0039405822754	-304.3092041015626	-483.102996826172	8.878603935241701	-286.7755737304688	-480.1007385253907	31.48200798034669	-226.6284790039063	-550.5006103515626	17.26967811584473	-174.9179840087891	-369.1089782714844	1443.367919921875	-277.6116333007813	-458.5938720703126	1194.461669921875	-257.4304199218751	-209.1217651367188	1135.019287109375	-268.8116760253907	-251.4761352539063	1342.115234375	-277.9434814453126	-474.9640502929689	1216.08447265625	-364.2192077636719	-435.9773254394532	1370.7265625	-352.8090515136719	-391.0650024414064	1369.600952148438	-445.2346496582032	-348.0661926269532	1355.237426757813	-481.6669921875001	-459.864715576172	1064.6298828125	-510.6246643066407	-475.0724182128907	1056.899780273438	-427.1094665527345	-497.5530700683595	1038.96728515625	-492.1619262695314	-404.1453247070314	805.291687011719	-515.7440795898439	-469.1848754882814	819.4653320312502	-556.9962158203126	-404.5006713867189	700.3040771484376	-522.9486694335939	-496.8897094726564	739.4287109375001	-559.0193481445314	-446.4147949218751	1222.435180664063	-134.4117279052735	-419.0151977539064	1372.354125976563	-160.2220001220703	-352.2264099121094	1379.724365234375	-83.30870056152345	-303.6896362304688	1381.846557617188	-69.83621215820314	-199.8610229492188	1086.560302734375	-2.35980772972107	-238.4376831054688	1052.278198242188	-83.00547027587892	-209.6427307128907	1016.913024902344	-27.35140228271485	21.22314834594727	1007.15234375	-130.8736877441407	14.13747310638428	963.494567871094	-67.1073455810547	121.2573928833008	985.3439941406252	-141.8775634765625	75.95993041992189	913.2036132812502	-81.83882141113283	
